<svg xmlns="http://www.w3.org/2000/svg" xmlns:xlink="http://www.w3.org/1999/xlink" version="1.1" x="0px" y="0px" viewBox="0 0 96 120" enable-background="new 0 0 96 96" xml:space="preserve"><g><path d="M48,34c-7.72,0-14,6.28-14,14s6.28,14,14,14s14-6.28,14-14S55.72,34,48,34z M38,48c0-5.514,4.486-10,10-10   c0.222,0,0.439,0.019,0.658,0.033C51.876,40.182,54,43.838,54,48s-2.124,7.818-5.342,9.967C48.439,57.981,48.222,58,48,58   C42.486,58,38,53.514,38,48z"/></g><text x="0" y="111" fill="#000000" font-size="5px" font-weight="bold" font-family="'Helvetica Neue', Helvetica, Arial-Unicode, Arial, Sans-serif">Created by Yorlmar Campos</text><text x="0" y="116" fill="#000000" font-size="5px" font-weight="bold" font-family="'Helvetica Neue', Helvetica, Arial-Unicode, Arial, Sans-serif">from the Noun Project</text></svg>