<svg xmlns="http://www.w3.org/2000/svg" xmlns:xlink="http://www.w3.org/1999/xlink" version="1.1" x="0px" y="0px" viewBox="0 0 96 120" enable-background="new 0 0 96 96" xml:space="preserve"><g><path d="M48,34c-7.72,0-14,6.28-14,14s6.28,14,14,14c7.72,0,14-6.28,14-14S55.72,34,48,34z M48,58c-0.222,0-0.44-0.019-0.658-0.033   C44.123,55.818,42,52.162,42,48s2.123-7.818,5.342-9.967C47.56,38.019,47.778,38,48,38c5.514,0,10,4.486,10,10S53.514,58,48,58z"/></g><text x="0" y="111" fill="#000000" font-size="5px" font-weight="bold" font-family="'Helvetica Neue', Helvetica, Arial-Unicode, Arial, Sans-serif">Created by Yorlmar Campos</text><text x="0" y="116" fill="#000000" font-size="5px" font-weight="bold" font-family="'Helvetica Neue', Helvetica, Arial-Unicode, Arial, Sans-serif">from the Noun Project</text></svg>